<svg height="682pt" viewBox="-21 -77 682.66515 682" width="682pt" xmlns="http://www.w3.org/2000/svg"><path d="m592.792969-3.417969h-284.351563c-26.03125 0-47.207031 21.175781-47.207031 47.207031v29.621094h-213.890625c-26.03125 0-47.207031 21.175782-47.207031 47.207032v22.394531c0 6.988281 5.664062 12.648437 12.648437 12.648437 6.980469 0 12.644532-5.660156 12.644532-12.648437v-22.394531c0-12.085938 9.828124-21.914063 21.914062-21.914063h284.351562c12.082032 0 21.914063 9.828125 21.914063 21.914063v193.0625c0 12.082031-9.832031 21.914062-21.914063 21.914062h-122.273437c-3.664063 0-7.152344 1.59375-9.554687 4.363281l-45.300782 52.234375-50.734375-52.71875c-2.382812-2.476562-5.671875-3.878906-9.109375-3.878906h-47.378906c-12.085938 0-21.914062-9.832031-21.914062-21.914062v-70.761719c0-6.980469-5.664063-12.644531-12.644532-12.644531-6.984375 0-12.648437 5.664062-12.648437 12.644531v70.761719c0 26.03125 21.175781 47.207031 47.207031 47.207031h41.996094l56.597656 58.820312c2.386719 2.480469 5.679688 3.875 9.109375 3.875.113281 0 .222656 0 .328125-.003906 3.554688-.09375 6.90625-1.675781 9.230469-4.355469l48.164062-55.535156v51.492188c0 26.03125 21.175781 47.207031 47.207031 47.207031h41.996094l56.597656 58.820312c2.386719 2.480469 5.675782 3.875 9.109376 3.875h.328124c3.554688-.09375 6.898438-1.675781 9.226563-4.359375l50.597656-58.335937h116.492188c26.03125 0 47.207031-21.175781 47.207031-47.207031v-131.117188h1.261719c26.027343 0 47.207031-21.175781 47.207031-47.207031v-193.0625c0-26.027344-21.179688-47.210938-47.207031-47.210938zm-26.554688 418.597657c0 12.085937-9.828125 21.914062-21.914062 21.914062h-122.269531c-3.667969 0-7.152344 1.59375-9.554688 4.359375l-45.304688 52.242187-50.730468-52.71875c-2.382813-2.480468-5.675782-3.878906-9.113282-3.878906h-47.375c-12.085937 0-21.914062-9.832031-21.914062-21.917968v-54.292969h93.625c26.035156 0 47.214844-21.175781 47.214844-47.207031v-29.617188h46.039062l50.589844 58.335938c2.328125 2.683593 5.671875 4.261718 9.226562 4.355468.109376.003906.214844.003906.328126.003906 3.433593 0 6.722656-1.398437 9.113281-3.878906l56.59375-58.816406h15.445312zm48.46875-178.324219c0 12.085937-9.832031 21.914062-21.914062 21.914062h-47.378907c-3.4375 0-6.730468 1.402344-9.113281 3.875l-50.730469 52.726563-45.300781-52.242188c-2.402343-2.769531-5.890625-4.359375-9.558593-4.359375h-51.808594v-138.152343c0-26.03125-21.179688-47.207032-47.214844-47.207032h-45.160156v-29.617187c0-12.082031 9.828125-21.917969 21.914062-21.917969h284.351563c12.082031 0 21.914062 9.835938 21.914062 21.917969zm0 0"/><path d="m8.996094 205.074219.265625.082031c1.222656.367188 2.453125.542969 3.664062.542969 5.429688 0 10.449219-3.527344 12.097657-8.996094 2.019531-6.6875-1.765626-13.742187-8.449219-15.761719l-.269531-.082031c-6.691407-2.015625-13.742188 1.769531-15.761719 8.453125-2.015625 6.6875 1.765625 13.742188 8.453125 15.761719zm0 0"/><path d="m415.292969 160.542969.269531.082031c1.214844.363281 2.441406.539062 3.644531.539062 5.4375 0 10.460938-3.535156 12.105469-9.011718 2.007812-6.6875-1.78125-13.738282-8.472656-15.75l-.265625-.082032c-6.695313-2.007812-13.746094 1.785157-15.753907 8.476563-2.011718 6.683594 1.78125 13.738281 8.472657 15.746094zm0 0"/><path d="m564.070312 79.785156h-145.003906c-6.980468 0-12.644531 5.664063-12.644531 12.648438 0 6.980468 5.664063 12.644531 12.644531 12.644531h145.003906c6.988282 0 12.648438-5.664063 12.648438-12.644531 0-6.984375-5.660156-12.648438-12.648438-12.648438zm0 0"/><path d="m564.070312 134.5625h-94c-6.980468 0-12.644531 5.664062-12.644531 12.644531 0 6.984375 5.664063 12.648438 12.644531 12.648438h94c6.988282 0 12.648438-5.664063 12.648438-12.648438 0-6.980469-5.660156-12.644531-12.648438-12.644531zm0 0"/><path d="m564.070312 189.335938h-145.003906c-6.980468 0-12.644531 5.664062-12.644531 12.644531 0 6.988281 5.664063 12.648437 12.644531 12.648437h145.003906c6.988282 0 12.648438-5.660156 12.648438-12.648437 0-6.980469-5.660156-12.644531-12.648438-12.644531zm0 0"/></svg>